HIERARCHY
ROOT Hips
{
	OFFSET 0.000000 0.000000 0.000000
	CHANNELS 6 Xposition Yposition Zposition Xrotation Yrotation Zrotation
	JOINT LeftUpLeg_virtual
	{
		OFFSET 0.000000 0.000000 0.000000
		CHANNELS 3 Xrotation Yrotation Zrotation
		JOINT LeftUpLeg
		{
			OFFSET 15.427100 -6.655098 0.678600
			CHANNELS 3 Xrotation Yrotation Zrotation
			JOINT LeftLeg
			{
				OFFSET 4.081073 -39.591068 13.024000
				CHANNELS 3 Xrotation Yrotation Zrotation
				JOINT LeftFoot
				{
					OFFSET -4.081074 -37.707932 -15.979700
					CHANNELS 3 Xrotation Yrotation Zrotation
					JOINT LeftToeBase
					{
						OFFSET 5.346399 -15.068900 20.645000
						CHANNELS 3 Xrotation Yrotation Zrotation
						JOINT LeftToe_End
						{
							OFFSET 2.754700 0.931300 11.300900
							CHANNELS 3 Xrotation Yrotation Zrotation
							End Site
							{
								OFFSET 0 0 0
							}
						}
					}
				}
			}
		}
	}
	JOINT RightUpLeg_virtual
	{
		OFFSET 0.000000 0.000000 0.000000
		CHANNELS 3 Xrotation Yrotation Zrotation
		JOINT RightUpLeg
		{
			OFFSET -15.569500 -6.655098 0.678600
			CHANNELS 3 Xrotation Yrotation Zrotation
			JOINT RightLeg
			{
				OFFSET -4.081825 -39.591045 13.023800
				CHANNELS 3 Xrotation Yrotation Zrotation
				JOINT RightFoot
				{
					OFFSET 4.081824 -37.707954 -15.979600
					CHANNELS 3 Xrotation Yrotation Zrotation
					JOINT RightToeBase
					{
						OFFSET -5.346400 -15.068900 20.645000
						CHANNELS 3 Xrotation Yrotation Zrotation
						JOINT RightToe_End
						{
							OFFSET -2.754700 0.931300 11.300900
							CHANNELS 3 Xrotation Yrotation Zrotation
							End Site
							{
								OFFSET 0 0 0
							}
						}
					}
				}
			}
		}
	}
	JOINT Spine_virtual
	{
		OFFSET 0.000000 0.000000 0.000000
		CHANNELS 3 Xrotation Yrotation Zrotation
		JOINT Spine
		{
			OFFSET -0.279200 12.230698 -2.892100
			CHANNELS 3 Xrotation Yrotation Zrotation
			JOINT Spine1
			{
				OFFSET -0.232667 10.192268 -1.242267
				CHANNELS 3 Xrotation Yrotation Zrotation
				JOINT Spine1_split
				{
					OFFSET -0.232667 10.192268 -1.242267
					CHANNELS 3 Xrotation Yrotation Zrotation
					JOINT Spine2
					{
						OFFSET -0.232667 10.192268 -1.242267
						CHANNELS 3 Xrotation Yrotation Zrotation
						JOINT Neck_virtual
						{
							OFFSET 0.000000 0.000000 0.000000
							CHANNELS 3 Xrotation Yrotation Zrotation
							JOINT Neck
							{
								OFFSET -0.418800 17.814194 8.416900
								CHANNELS 3 Xrotation Yrotation Zrotation
								JOINT Head
								{
									OFFSET 0.000000 7.031097 3.806800
									CHANNELS 3 Xrotation Yrotation Zrotation
									JOINT HeadTop_End
									{
										OFFSET 0.000000 24.646606 12.978600
										CHANNELS 3 Xrotation Yrotation Zrotation
										End Site
										{
											OFFSET 0 0 0
										}
									}
								}
							}
						}
						JOINT LeftShoulder_virtual
						{
							OFFSET 0.000000 0.000000 0.000000
							CHANNELS 3 Xrotation Yrotation Zrotation
							JOINT LeftShoulder
							{
								OFFSET 8.476499 7.247704 -3.868750
								CHANNELS 3 Xrotation Yrotation Zrotation
								JOINT LeftShoulder_split
								{
									OFFSET 8.476499 7.247704 -3.868750
									CHANNELS 3 Xrotation Yrotation Zrotation
									JOINT LeftArm
									{
										OFFSET 9.308998 -2.777710 0.208600
										CHANNELS 3 Xrotation Yrotation Zrotation
										JOINT LeftForeArm
										{
											OFFSET 29.972298 0.000000 0.000000
											CHANNELS 3 Xrotation Yrotation Zrotation
											JOINT LeftHand
											{
												OFFSET 26.026505 0.000000 0.000000
												CHANNELS 3 Xrotation Yrotation Zrotation
												End Site
												{
													OFFSET 0 0 0
												}
											}
										}
									}
								}
							}
						}
						JOINT RightShoulder_virtual
						{
							OFFSET 0.000000 0.000000 0.000000
							CHANNELS 3 Xrotation Yrotation Zrotation
							JOINT RightShoulder
							{
								OFFSET -7.570500 7.247704 -3.868750
								CHANNELS 3 Xrotation Yrotation Zrotation
								JOINT RightShoulder_split
								{
									OFFSET -7.570500 7.247704 -3.868750
									CHANNELS 3 Xrotation Yrotation Zrotation
									JOINT RightArm
									{
										OFFSET -9.308998 -2.777710 0.208500
										CHANNELS 3 Xrotation Yrotation Zrotation
										JOINT RightForeArm
										{
											OFFSET -29.972300 0.000000 0.000000
											CHANNELS 3 Xrotation Yrotation Zrotation
											JOINT RightHand
											{
												OFFSET -26.026505 0.000000 0.000000
												CHANNELS 3 Xrotation Yrotation Zrotation
												End Site
												{
													OFFSET 0 0 0
												}
											}
										}
									}
								}
							}
						}
					}
				}
			}
		}
	}
}
MOTION
Frames: 4
Frame Time: 0.03333333
6.550546 95.540436 -14.250458 0.000000 0.000000 0.000000 -2.366318 8.160777 2.431628 -4.030584 16.657409 7.829633 9.612362 5.578011 1.751304 -2.647591 9.095915 -17.869653 3.140493 -4.406396 -0.077845 0.000000 0.000000 0.000000 -2.090228 8.804548 2.233979 1.762957 -10.784751 -1.703710 9.520357 -0.450629 0.346653 -13.056148 -15.099649 12.020837 6.635140 4.128249 -7.570698 0.000000 0.000000 0.000000 -4.188757 11.536709 2.395767 2.071330 2.281241 -1.774594 -0.645323 -1.741609 -0.099675 0.136613 -0.165811 -0.058830 0.000000 0.000000 0.000000 0.072479 1.461272 -0.974752 5.041148 5.103971 1.763350 -7.806897 -19.383491 -29.915843 0.000000 0.000000 0.000000 -0.623697 -0.813722 -0.940780 1.176076 -10.276392 -14.673348 0.821364 -3.244350 -3.441802 -1.970963 1.046972 -59.529948 0.285696 -17.053779 -1.453221 0.000000 0.000000 0.000000 -0.499086 -0.402793 -0.514596 3.178659 -3.427383 16.100212 0.262008 2.041639 0.060938 1.260398 5.414582 64.476262 -2.781405 14.268278 2.946559 0.000000 0.000000 0.000000 
6.543804 95.573349 -14.462345 0.000000 0.000000 0.000000 -2.457057 8.139729 2.460104 -4.215274 16.588023 7.898992 9.647679 5.578353 1.753872 -2.429962 8.933172 -17.921935 3.154510 -4.384615 -0.144303 0.000000 0.000000 0.000000 -2.143180 8.854127 2.266198 1.928671 -10.698186 -1.675055 9.391807 -0.475559 0.325836 -12.978862 -15.179231 12.078380 6.813216 4.093695 -7.554322 0.000000 0.000000 0.000000 -4.254634 11.673126 2.457900 2.185092 2.382996 -1.698720 -0.561685 -1.660922 -0.106438 0.145248 -0.146381 -0.027884 0.000000 0.000000 0.000000 0.024563 1.512910 -0.998408 5.112953 5.055068 1.760127 -8.059960 -19.507468 -29.791383 0.000000 0.000000 0.000000 -0.599258 -0.751279 -0.975123 1.147233 -10.189652 -14.738303 0.756754 -2.765052 -3.669307 -1.079132 1.741331 -59.447433 0.378253 -16.192027 -1.389888 0.000000 0.000000 0.000000 -0.468324 -0.306414 -0.561828 3.126199 -3.167789 16.043954 0.058947 2.540848 0.011977 0.391890 5.973481 64.446530 -2.736757 14.952437 2.834579 0.000000 0.000000 0.000000 
6.482576 95.557785 -14.743034 0.000000 0.000000 0.000000 -2.615766 8.456510 2.583414 -4.555611 16.427773 7.909999 9.892747 5.587445 1.724130 -2.310926 8.614871 -17.702986 3.206410 -4.354797 -0.148721 0.000000 0.000000 0.000000 -2.242631 9.329186 2.380772 2.129727 -10.511125 -1.661168 9.573476 -0.564399 0.314149 -13.096055 -15.469812 12.085914 6.812374 4.047663 -7.595012 0.000000 0.000000 0.000000 -4.499611 12.056001 2.601130 2.445908 2.513588 -1.533165 -0.504269 -1.544136 -0.163054 0.162579 -0.164826 -0.011391 0.000000 0.000000 0.000000 -0.045321 1.607817 -1.057989 5.164617 5.068249 1.836154 -8.488316 -20.080988 -30.094862 0.000000 0.000000 0.000000 -0.568161 -0.657233 -1.033758 1.148870 -10.003703 -14.692104 0.587161 -2.542629 -3.726097 0.137663 3.038877 -59.613502 0.378585 -15.073647 -1.346004 0.000000 0.000000 0.000000 -0.454797 -0.178764 -0.661405 3.068826 -2.709865 15.960002 0.186812 2.573109 0.115448 -0.908733 7.062485 64.332001 -2.620958 15.855908 2.664201 0.000000 0.000000 0.000000 
6.369048 95.496414 -15.044022 0.000000 0.000000 0.000000 -2.804899 9.042570 2.775794 -4.974056 16.218042 7.855364 10.328128 5.589823 1.675318 -2.344699 8.184474 -17.259903 3.364151 -4.316121 -0.096324 0.000000 0.000000 0.000000 -2.405356 10.095737 2.564997 2.359329 -10.241570 -1.654375 9.950982 -0.707123 0.300198 -13.457960 -15.944544 12.003331 6.715995 3.993226 -7.690385 0.000000 0.000000 0.000000 -4.887735 12.625951 2.801902 2.791078 2.647380 -1.320722 -0.487044 -1.419738 -0.257175 0.176963 -0.208309 -0.022422 0.000000 0.000000 0.000000 -0.124490 1.722282 -1.138087 5.191288 5.163976 1.951792 -9.069127 -21.032109 -30.832744 0.000000 0.000000 0.000000 -0.536082 -0.555434 -1.103863 1.191375 -9.733620 -14.550384 0.451981 -2.578476 -3.698182 1.476160 4.748638 -59.943523 0.282115 -14.015549 -1.309797 0.000000 0.000000 0.000000 -0.463446 -0.050526 -0.785240 3.015372 -2.118870 15.885729 0.574414 2.226504 0.364631 -2.340029 8.337696 64.172796 -2.445579 16.840284 2.468910 0.000000 0.000000 0.000000 
